%TF.GenerationSoftware,KiCad,Pcbnew,5.99.0-unknown-04793924d~104~ubuntu20.04.1*%
%TF.CreationDate,2020-11-08T20:52:43+01:00*%
%TF.ProjectId,co2mon,636f326d-6f6e-42e6-9b69-6361645f7063,rev?*%
%TF.SameCoordinates,Original*%
%TF.FileFunction,Soldermask,Top*%
%TF.FilePolarity,Negative*%
%FSLAX46Y46*%
G04 Gerber Fmt 4.6, Leading zero omitted, Abs format (unit mm)*
G04 Created by KiCad (PCBNEW 5.99.0-unknown-04793924d~104~ubuntu20.04.1) date 2020-11-08 20:52:43*
%MOMM*%
%LPD*%
G01*
G04 APERTURE LIST*
G04 Aperture macros list*
%AMRoundRect*
0 Rectangle with rounded corners*
0 $1 Rounding radius*
0 $2 $3 $4 $5 $6 $7 $8 $9 X,Y pos of 4 corners*
0 Add a 4 corners polygon primitive as box body*
4,1,4,$2,$3,$4,$5,$6,$7,$8,$9,$2,$3,0*
0 Add four circle primitives for the rounded corners*
1,1,$1+$1,$2,$3,0*
1,1,$1+$1,$4,$5,0*
1,1,$1+$1,$6,$7,0*
1,1,$1+$1,$8,$9,0*
0 Add four rect primitives between the rounded corners*
20,1,$1+$1,$2,$3,$4,$5,0*
20,1,$1+$1,$4,$5,$6,$7,0*
20,1,$1+$1,$6,$7,$8,$9,0*
20,1,$1+$1,$8,$9,$2,$3,0*%
G04 Aperture macros list end*
%ADD10R,1.700000X1.700000*%
%ADD11O,1.700000X1.700000*%
%ADD12C,1.500000*%
%ADD13C,3.200000*%
%ADD14RoundRect,0.125000X-0.625000X-0.125000X0.625000X-0.125000X0.625000X0.125000X-0.625000X0.125000X0*%
%ADD15RoundRect,0.125000X-0.125000X-0.625000X0.125000X-0.625000X0.125000X0.625000X-0.125000X0.625000X0*%
%ADD16RoundRect,0.218750X0.218750X0.256250X-0.218750X0.256250X-0.218750X-0.256250X0.218750X-0.256250X0*%
%ADD17R,1.600000X1.600000*%
%ADD18O,1.600000X1.600000*%
%ADD19RoundRect,0.218750X-0.218750X-0.256250X0.218750X-0.256250X0.218750X0.256250X-0.218750X0.256250X0*%
%ADD20RoundRect,0.250000X0.450000X-0.325000X0.450000X0.325000X-0.450000X0.325000X-0.450000X-0.325000X0*%
%ADD21RoundRect,0.218750X-0.256250X0.218750X-0.256250X-0.218750X0.256250X-0.218750X0.256250X0.218750X0*%
%ADD22RoundRect,0.250000X0.325000X0.450000X-0.325000X0.450000X-0.325000X-0.450000X0.325000X-0.450000X0*%
%ADD23RoundRect,0.200000X-0.450000X0.200000X-0.450000X-0.200000X0.450000X-0.200000X0.450000X0.200000X0*%
%ADD24O,1.300000X0.800000*%
%ADD25RoundRect,0.250000X-0.375000X-1.075000X0.375000X-1.075000X0.375000X1.075000X-0.375000X1.075000X0*%
%ADD26R,1.350000X0.400000*%
%ADD27C,1.450000*%
%ADD28R,1.900000X1.200000*%
%ADD29R,1.900000X1.500000*%
%ADD30O,1.900000X1.200000*%
%ADD31R,0.800000X0.900000*%
G04 APERTURE END LIST*
D10*
%TO.C,J4*%
X140800000Y-115000000D03*
D11*
X140800000Y-112460000D03*
X140800000Y-109920000D03*
X140800000Y-107380000D03*
X140800000Y-104840000D03*
X140800000Y-102300000D03*
%TD*%
D12*
%TO.C,FID1*%
X97500000Y-96400000D03*
%TD*%
D13*
%TO.C,H1*%
X93000000Y-98000000D03*
%TD*%
D10*
%TO.C,JP1*%
X114000000Y-126000000D03*
D11*
X111460000Y-126000000D03*
%TD*%
D12*
%TO.C,FID4*%
X146600000Y-133100000D03*
%TD*%
D14*
%TO.C,U2*%
X120825000Y-124100000D03*
X120825000Y-124900000D03*
X120825000Y-125700000D03*
X120825000Y-126500000D03*
X120825000Y-127300000D03*
X120825000Y-128100000D03*
X120825000Y-128900000D03*
X120825000Y-129700000D03*
D15*
X122200000Y-131075000D03*
X123000000Y-131075000D03*
X123800000Y-131075000D03*
X124600000Y-131075000D03*
X125400000Y-131075000D03*
X126200000Y-131075000D03*
X127000000Y-131075000D03*
X127800000Y-131075000D03*
D14*
X129175000Y-129700000D03*
X129175000Y-128900000D03*
X129175000Y-128100000D03*
X129175000Y-127300000D03*
X129175000Y-126500000D03*
X129175000Y-125700000D03*
X129175000Y-124900000D03*
X129175000Y-124100000D03*
D15*
X127800000Y-122725000D03*
X127000000Y-122725000D03*
X126200000Y-122725000D03*
X125400000Y-122725000D03*
X124600000Y-122725000D03*
X123800000Y-122725000D03*
X123000000Y-122725000D03*
X122200000Y-122725000D03*
%TD*%
D16*
%TO.C,C5*%
X118187500Y-125500000D03*
X116612500Y-125500000D03*
%TD*%
D17*
%TO.C,A1*%
X108500000Y-134500000D03*
D18*
X111040000Y-134500000D03*
X113580000Y-134500000D03*
X116120000Y-134500000D03*
X118660000Y-134500000D03*
X121200000Y-134500000D03*
X123740000Y-134500000D03*
X126280000Y-134500000D03*
X128820000Y-134500000D03*
X131360000Y-134500000D03*
X133900000Y-134500000D03*
X136440000Y-134500000D03*
X138980000Y-134500000D03*
X141520000Y-134500000D03*
X144060000Y-134500000D03*
X144060000Y-119260000D03*
X141520000Y-119260000D03*
X138980000Y-119260000D03*
X136440000Y-119260000D03*
X133900000Y-119260000D03*
X131360000Y-119260000D03*
X128820000Y-119260000D03*
X126280000Y-119260000D03*
X123740000Y-119260000D03*
X121200000Y-119260000D03*
X118660000Y-119260000D03*
X116120000Y-119260000D03*
X113580000Y-119260000D03*
X111040000Y-119260000D03*
X108500000Y-119260000D03*
%TD*%
D19*
%TO.C,R19*%
X113912500Y-121400000D03*
X115487500Y-121400000D03*
%TD*%
D20*
%TO.C,C2*%
X131900000Y-98525000D03*
X131900000Y-96475000D03*
%TD*%
D13*
%TO.C,H3*%
X145000000Y-98000000D03*
%TD*%
D21*
%TO.C,C3*%
X136470000Y-129942500D03*
X136470000Y-131517500D03*
%TD*%
D13*
%TO.C,H2*%
X93000000Y-126500000D03*
%TD*%
D10*
%TO.C,J3*%
X106760000Y-108500000D03*
D11*
X106760000Y-105960000D03*
X106760000Y-103420000D03*
X106760000Y-100880000D03*
%TD*%
D19*
%TO.C,R21*%
X120112500Y-111400000D03*
X121687500Y-111400000D03*
%TD*%
D10*
%TO.C,J5*%
X102000000Y-114300000D03*
D11*
X104540000Y-114300000D03*
X107080000Y-114300000D03*
X109620000Y-114300000D03*
X112160000Y-114300000D03*
X114700000Y-114300000D03*
X117240000Y-114300000D03*
X119780000Y-114300000D03*
X122320000Y-114300000D03*
X124860000Y-114300000D03*
%TD*%
D19*
%TO.C,C6*%
X116612500Y-127200000D03*
X118187500Y-127200000D03*
%TD*%
D16*
%TO.C,C8*%
X120787500Y-122300000D03*
X119212500Y-122300000D03*
%TD*%
D10*
%TO.C,J9*%
X92200000Y-134300000D03*
D11*
X92200000Y-131760000D03*
X94740000Y-134300000D03*
X94740000Y-131760000D03*
X97280000Y-134300000D03*
X97280000Y-131760000D03*
X99820000Y-134300000D03*
X99820000Y-131760000D03*
X102360000Y-134300000D03*
X102360000Y-131760000D03*
%TD*%
D16*
%TO.C,C4*%
X134657500Y-128130000D03*
X133082500Y-128130000D03*
%TD*%
D22*
%TO.C,C1*%
X146825000Y-121300000D03*
X144775000Y-121300000D03*
%TD*%
D23*
%TO.C,J2*%
X132900000Y-103400000D03*
D24*
X132900000Y-104650000D03*
X132900000Y-105900000D03*
X132900000Y-107150000D03*
X132900000Y-108400000D03*
X132900000Y-109650000D03*
X132900000Y-110900000D03*
%TD*%
D25*
%TO.C,F1*%
X138500000Y-130300000D03*
X141300000Y-130300000D03*
%TD*%
D10*
%TO.C,J6*%
X136300000Y-108500000D03*
D11*
X136300000Y-105960000D03*
X136300000Y-103420000D03*
X136300000Y-100880000D03*
X136300000Y-98340000D03*
%TD*%
D26*
%TO.C,J7*%
X143737500Y-128200000D03*
X143737500Y-127550000D03*
X143737500Y-126900000D03*
X143737500Y-126250000D03*
X143737500Y-125600000D03*
D27*
X143737500Y-124400000D03*
D28*
X146437500Y-129800000D03*
D27*
X143737500Y-129400000D03*
D29*
X146437500Y-125900000D03*
D28*
X146437500Y-124000000D03*
D29*
X146437500Y-127900000D03*
D30*
X146437500Y-130400000D03*
X146437500Y-123400000D03*
%TD*%
D10*
%TO.C,J1*%
X102000000Y-111200000D03*
D11*
X104540000Y-111200000D03*
X107080000Y-111200000D03*
X109620000Y-111200000D03*
X112160000Y-111200000D03*
X114700000Y-111200000D03*
X117240000Y-111200000D03*
%TD*%
D31*
%TO.C,U1*%
X134800000Y-129700000D03*
X132900000Y-129700000D03*
X133850000Y-131700000D03*
%TD*%
D19*
%TO.C,R20*%
X124312500Y-111400000D03*
X125887500Y-111400000D03*
%TD*%
%TO.C,C7*%
X129212500Y-131500000D03*
X130787500Y-131500000D03*
%TD*%
D10*
%TO.C,J10*%
X92500000Y-121000000D03*
D11*
X92500000Y-118460000D03*
X92500000Y-115920000D03*
X92500000Y-113380000D03*
X92500000Y-110840000D03*
X92500000Y-108300000D03*
X92500000Y-105760000D03*
X92500000Y-103220000D03*
%TD*%
D10*
%TO.C,J8*%
X145500000Y-116000000D03*
D11*
X145500000Y-113460000D03*
X145500000Y-110920000D03*
X145500000Y-108380000D03*
%TD*%
D10*
%TO.C,J11*%
X123000000Y-97000000D03*
D11*
X120460000Y-97000000D03*
X117920000Y-97000000D03*
X115380000Y-97000000D03*
%TD*%
M02*
