%TF.GenerationSoftware,KiCad,Pcbnew,5.99.0-unknown-04793924d~104~ubuntu20.04.1*%
%TF.CreationDate,2020-11-08T20:52:42+01:00*%
%TF.ProjectId,co2mon,636f326d-6f6e-42e6-9b69-6361645f7063,rev?*%
%TF.SameCoordinates,Original*%
%TF.FileFunction,Paste,Bot*%
%TF.FilePolarity,Positive*%
%FSLAX46Y46*%
G04 Gerber Fmt 4.6, Leading zero omitted, Abs format (unit mm)*
G04 Created by KiCad (PCBNEW 5.99.0-unknown-04793924d~104~ubuntu20.04.1) date 2020-11-08 20:52:42*
%MOMM*%
%LPD*%
G01*
G04 APERTURE LIST*
G04 Aperture macros list*
%AMRoundRect*
0 Rectangle with rounded corners*
0 $1 Rounding radius*
0 $2 $3 $4 $5 $6 $7 $8 $9 X,Y pos of 4 corners*
0 Add a 4 corners polygon primitive as box body*
4,1,4,$2,$3,$4,$5,$6,$7,$8,$9,$2,$3,0*
0 Add four circle primitives for the rounded corners*
1,1,$1+$1,$2,$3,0*
1,1,$1+$1,$4,$5,0*
1,1,$1+$1,$6,$7,0*
1,1,$1+$1,$8,$9,0*
0 Add four rect primitives between the rounded corners*
20,1,$1+$1,$2,$3,$4,$5,0*
20,1,$1+$1,$4,$5,$6,$7,0*
20,1,$1+$1,$6,$7,$8,$9,0*
20,1,$1+$1,$8,$9,$2,$3,0*%
G04 Aperture macros list end*
%ADD10R,0.900000X0.800000*%
%ADD11RoundRect,0.250000X-0.450000X0.325000X-0.450000X-0.325000X0.450000X-0.325000X0.450000X0.325000X0*%
%ADD12RoundRect,0.250000X0.325000X0.450000X-0.325000X0.450000X-0.325000X-0.450000X0.325000X-0.450000X0*%
%ADD13RoundRect,0.250000X-0.325000X-0.450000X0.325000X-0.450000X0.325000X0.450000X-0.325000X0.450000X0*%
%ADD14R,0.800000X0.900000*%
%ADD15RoundRect,0.250000X0.450000X-0.325000X0.450000X0.325000X-0.450000X0.325000X-0.450000X-0.325000X0*%
G04 APERTURE END LIST*
D10*
%TO.C,Q3*%
X131900000Y-129050000D03*
X131900000Y-127150000D03*
X133900000Y-128100000D03*
%TD*%
D11*
%TO.C,R10*%
X109000000Y-123775000D03*
X109000000Y-125825000D03*
%TD*%
%TO.C,R18*%
X126100000Y-123175000D03*
X126100000Y-125225000D03*
%TD*%
D12*
%TO.C,R16*%
X134925000Y-132400000D03*
X132875000Y-132400000D03*
%TD*%
D13*
%TO.C,R7*%
X122875000Y-105200000D03*
X124925000Y-105200000D03*
%TD*%
D11*
%TO.C,R8*%
X140000000Y-129675000D03*
X140000000Y-131725000D03*
%TD*%
D13*
%TO.C,R6*%
X118475000Y-105200000D03*
X120525000Y-105200000D03*
%TD*%
D14*
%TO.C,Q2*%
X126050000Y-109300000D03*
X124150000Y-109300000D03*
X125100000Y-107300000D03*
%TD*%
D11*
%TO.C,R14*%
X116700000Y-121775000D03*
X116700000Y-123825000D03*
%TD*%
D15*
%TO.C,R5*%
X137000000Y-132525000D03*
X137000000Y-130475000D03*
%TD*%
D14*
%TO.C,Q1*%
X121850000Y-109300000D03*
X119950000Y-109300000D03*
X120900000Y-107300000D03*
%TD*%
D11*
%TO.C,R15*%
X114100000Y-121775000D03*
X114100000Y-123825000D03*
%TD*%
%TO.C,R9*%
X105900000Y-123775000D03*
X105900000Y-125825000D03*
%TD*%
D12*
%TO.C,R3*%
X126125000Y-111400000D03*
X124075000Y-111400000D03*
%TD*%
%TO.C,R2*%
X121925000Y-111400000D03*
X119875000Y-111400000D03*
%TD*%
D15*
%TO.C,R4*%
X129300000Y-129025000D03*
X129300000Y-126975000D03*
%TD*%
D12*
%TO.C,R13*%
X123825000Y-125200000D03*
X121775000Y-125200000D03*
%TD*%
%TO.C,R12*%
X122325000Y-131800000D03*
X120275000Y-131800000D03*
%TD*%
D11*
%TO.C,R11*%
X109000000Y-130025000D03*
X109000000Y-132075000D03*
%TD*%
D12*
%TO.C,R1*%
X137325000Y-125300000D03*
X135275000Y-125300000D03*
%TD*%
%TO.C,R17*%
X126525000Y-131800000D03*
X124475000Y-131800000D03*
%TD*%
M02*
