M48
; DRILL file {KiCad 5.99.0-unknown-04793924d~104~ubuntu20.04.1} date Sun Nov  8 20:52:49 2020
; FORMAT={-:-/ absolute / metric / decimal}
; #@! TF.CreationDate,2020-11-08T20:52:49+01:00
; #@! TF.GenerationSoftware,Kicad,Pcbnew,5.99.0-unknown-04793924d~104~ubuntu20.04.1
; #@! TF.FileFunction,Plated,1,2,PTH
FMAT,2
METRIC
T1C0.300
T2C0.500
T3C0.600
T4C0.800
T5C0.850
T6C1.000
%
G90
G05
T1
X90.7Y-103.3
X90.7Y-120.9
X90.7Y-122.9
X90.8Y-130.3
X90.8Y-133.0
X93.5Y-122.7
X93.7Y-104.5
X94.0Y-109.7
X94.4Y-106.2
X94.4Y-111.5
X94.6Y-102.1
X95.0Y-121.2
X95.1Y-114.3
X95.5Y-116.8
X95.9Y-107.9
X95.9Y-111.6
X95.9Y-113.5
X96.6Y-116.7
X96.7Y-127.3
X96.9Y-118.3
X97.1Y-123.2
X97.4Y-129.7
X97.5Y-116.7
X98.2Y-110.3
X98.3Y-113.6
X98.7Y-124.8
X98.9Y-97.3
X98.9Y-125.97
X99.5Y-101.9
X99.7Y-111.4
X99.8Y-104.4
X99.9Y-126.0
X100.0Y-107.4
X100.3Y-103.2
X100.3Y-115.2
X100.6Y-96.1
X100.7Y-120.5
X100.7Y-122.9
X100.8Y-124.5
X101.2Y-118.2
X101.3Y-109.6
X101.7Y-100.6
X101.7Y-124.5
X103.3Y-107.1
X103.7Y-97.4
X104.1Y-101.5
X104.2Y-104.2
X104.2Y-106.8
X104.2Y-133.0
X104.4Y-135.2
X105.1Y-102.1
X105.4Y-127.0
X106.0Y-129.2
X106.9Y-118.5
X106.9Y-120.5
X106.9Y-135.2
X107.0Y-123.3
X107.2Y-129.2
X107.4Y-126.9
X107.5Y-133.1
X108.1Y-116.7
X108.3Y-100.4
X108.3Y-102.2
X108.3Y-104.8
X108.8Y-107.3
X109.0Y-121.1
X109.0Y-122.5
X110.1Y-129.8
X110.225Y-123.825
X110.5Y-100.9
X110.8Y-96.8
X111.3Y-121.2
X111.3Y-122.9
X111.9Y-129.2
X112.5Y-100.9
X112.5Y-120.4
X112.5Y-127.1
X112.675Y-123.825
X112.8Y-106.5
X113.2Y-96.9
X113.5Y-109.9
X113.5Y-112.7
X114.8Y-120.0
X114.9Y-118.1
X115.0Y-129.2
X115.5Y-122.4
X115.6Y-125.6
X115.7Y-127.1
X115.9Y-115.5
X116.0Y-133.1
X116.1Y-106.5
X116.4Y-130.1
X117.35Y-104.3
X117.4Y-126.3
X117.5Y-98.9
X117.6Y-117.3
X117.7Y-122.8
X117.8Y-106.4
X117.9Y-124.525
X118.1Y-107.6
X118.2Y-128.1
X118.5Y-122.3
X118.6Y-129.0
X118.6Y-131.6
X119.3Y-112.4
X119.5Y-102.65
X119.5Y-106.3
X119.7Y-107.3
X120.5Y-116.7
X120.8Y-121.5
X120.8Y-123.2
X121.851Y-110.253
X121.9Y-102.7
X122.2Y-121.5
X122.2Y-123.9
X122.3Y-129.5
X122.4Y-127.0
X123.0Y-102.7
X123.0Y-108.7
X123.0Y-129.0
X123.7Y-112.5
X123.8Y-126.5
X124.3Y-102.3
X124.4Y-98.2
X124.6Y-129.0
X125.0Y-124.2
X125.1Y-112.2
X125.4Y-129.6
X125.6Y-101.9
X125.9Y-100.9
X126.0Y-108.3
X126.05Y-110.35
X126.1Y-104.8
X126.1Y-106.7
X126.1Y-121.3
X126.5Y-129.1
X126.8Y-97.1
X127.1Y-108.9
X127.1Y-115.1
X127.1Y-116.6
X127.1Y-120.5
X127.2Y-110.2
X127.4Y-113.2
X127.5Y-124.6
X127.8Y-125.8
X127.8Y-129.9
X127.9Y-99.0
X127.9Y-127.7
X128.5Y-102.8
X128.7Y-103.7
X128.7Y-130.5
X128.8Y-122.9
X129.2Y-100.9
X129.3Y-101.9
X129.4Y-109.3
X129.4Y-113.2
X129.9Y-121.0
X129.9Y-130.6
X130.3Y-97.6
X130.3Y-132.5
X130.4Y-109.9
X130.5Y-105.1
X130.6Y-124.9
X130.6Y-127.2
X130.8Y-104.3
X130.8Y-129.0
X131.0Y-117.6
X131.1Y-122.9
X131.2Y-102.0
X131.4Y-111.0
X131.5Y-132.4
X131.6Y-103.7
X131.9Y-99.6
X131.9Y-124.1
X132.9Y-121.0
X133.0Y-123.0
X133.0Y-130.7
X133.7Y-122.0
X134.1Y-124.9
X134.4Y-117.0
X134.5Y-113.7
X134.6Y-97.1
X134.7Y-102.2
X134.8Y-130.7
X135.6Y-128.1
X135.9Y-114.4
X136.3Y-121.1
X136.3Y-122.9
X136.4Y-128.8
X137.0Y-114.4
X137.297Y-129.2
X137.3Y-124.1
X137.3Y-127.3
X137.6Y-97.1
X138.0Y-113.7
X138.2Y-123.1
X138.4Y-121.1
X138.6Y-117.3
X138.7Y-104.3
X138.8Y-109.0
X138.8Y-110.0
X138.9Y-125.3
X139.0Y-122.0
X139.7Y-95.7
X139.9Y-132.7
X140.0Y-124.9
X140.0Y-128.5
X140.4Y-122.9
X140.5Y-98.2
X140.6Y-121.1
X141.3Y-125.6
X141.5Y-117.3
X142.0Y-132.2
X142.3Y-125.6
X142.5Y-104.5
X142.7Y-131.1
X143.7Y-108.4
X143.8Y-109.6
X144.4Y-102.1
X145.2Y-104.5
X146.5Y-134.7
X146.9Y-119.9
X147.3Y-101.8
X147.3Y-105.5
T2
X132.9Y-103.4
X132.9Y-104.65
X132.9Y-105.9
X132.9Y-107.15
X132.9Y-108.4
X132.9Y-109.65
X132.9Y-110.9
T4
X108.5Y-119.26
X108.5Y-134.5
X111.04Y-119.26
X111.04Y-134.5
X113.58Y-119.26
X113.58Y-134.5
X116.12Y-119.26
X116.12Y-134.5
X118.66Y-119.26
X118.66Y-134.5
X121.2Y-119.26
X121.2Y-134.5
X123.74Y-119.26
X123.74Y-134.5
X126.28Y-119.26
X126.28Y-134.5
X128.82Y-119.26
X128.82Y-134.5
X131.36Y-119.26
X131.36Y-134.5
X133.9Y-119.26
X133.9Y-134.5
X136.44Y-119.26
X136.44Y-134.5
X138.98Y-119.26
X138.98Y-134.5
X141.52Y-119.26
X141.52Y-134.5
X144.06Y-119.26
X144.06Y-134.5
T5
X143.737Y-124.4
X143.737Y-129.4
T6
X92.2Y-131.76
X92.2Y-134.3
X94.74Y-131.76
X94.74Y-134.3
X97.28Y-131.76
X97.28Y-134.3
X99.82Y-131.76
X99.82Y-134.3
X102.36Y-131.76
X102.36Y-134.3
X140.8Y-102.3
X140.8Y-104.84
X140.8Y-107.38
X140.8Y-109.92
X140.8Y-112.46
X140.8Y-115.0
X102.0Y-111.2
X145.5Y-108.38
X145.5Y-110.92
X106.76Y-100.88
X104.54Y-111.2
X106.76Y-108.5
X107.08Y-111.2
X109.62Y-111.2
X112.16Y-111.2
X114.7Y-111.2
X117.24Y-111.2
X145.5Y-113.46
X145.5Y-116.0
X106.76Y-103.42
X106.76Y-105.96
X102.0Y-114.3
X104.54Y-114.3
X107.08Y-114.3
X109.62Y-114.3
X112.16Y-114.3
X114.7Y-114.3
X117.24Y-114.3
X119.78Y-114.3
X122.32Y-114.3
X124.86Y-114.3
X115.38Y-97.0
X117.92Y-97.0
X120.46Y-97.0
X123.0Y-97.0
X111.46Y-126.0
X114.0Y-126.0
X92.5Y-103.22
X92.5Y-105.76
X92.5Y-108.3
X92.5Y-110.84
X92.5Y-113.38
X92.5Y-115.92
X136.3Y-98.34
X92.5Y-118.46
X92.5Y-121.0
X136.3Y-100.88
X136.3Y-103.42
X136.3Y-105.96
X136.3Y-108.5
T3
G00X146.088Y-123.4
M15
G01X146.787Y-123.4
M16
G05
G00X146.787Y-130.4
M15
G01X146.088Y-130.4
M16
G05
T0
M30
